<svg xmlns="http://www.w3.org/2000/svg" width="17.955" height="15.486" viewBox="0 0 17.955 15.486">
  <g id="noun-whistle-2820602" transform="translate(45 34)">
    <g id="Group_3" data-name="Group 3" transform="translate(-45 -34)">
      <path id="Path_2" data-name="Path 2" d="M20.393,23.464A5.022,5.022,0,1,1,14.142,18.6l9.186-2.884a.306.306,0,0,1,.374.174l1.23,2.945a.306.306,0,0,1-.105.367l-4.542,3.225A5.039,5.039,0,0,1,20.393,23.464Zm-6.086-4.281a4.407,4.407,0,1,0,5.337,3.184.306.306,0,0,1,.119-.325l4.51-3.2-1.028-2.462Zm1.065,2.8a1.479,1.479,0,1,0,1.479,1.479A1.478,1.478,0,0,0,15.371,21.986Zm0-.612a2.09,2.09,0,1,1-2.089,2.09A2.091,2.091,0,0,1,15.371,21.374ZM7,22.15a5.05,5.05,0,0,1,3.817-4.9l9.25-2.9a.306.306,0,0,1,.21.01l3.228,1.352a.306.306,0,0,1,.062.529l-.057.042-.089.045-9.115,2.862a4.411,4.411,0,0,0-1.2,8.064.306.306,0,0,1-.263.549c-.18-.066-.379-.135-.647-.225l-.7-.236A14.258,14.258,0,0,1,9.854,26.7h0A5.055,5.055,0,0,1,7,22.15Zm3.982-4.312a4.444,4.444,0,0,0-.862,8.313h0a12.778,12.778,0,0,0,1.413.552,5.022,5.022,0,0,1,2.607-8.11l8.388-2.634-2.386-1Zm2.089-1.217,3.158,1.4a.306.306,0,1,1-.248.559l-3.158-1.4A.306.306,0,0,1,13.071,16.622ZM11.3,15.3l-.988-1.081a.306.306,0,1,1,.451-.412l.988,1.081A.306.306,0,1,1,11.3,15.3Zm.926-.411V13.306a.306.306,0,1,1,.612,0v1.585A.306.306,0,1,1,12.227,14.891Zm1.018.048,1.119-1.155a.306.306,0,1,1,.439.425l-1.119,1.155A.306.306,0,1,1,13.245,14.939Zm-1.493-.05L11.3,15.3l-.988-1.081.451-.412Zm1.087,0h-.612V13.306h.612Zm-1.45,1.5-1.621-.037a.306.306,0,0,1,.014-.611l1.621.037A.306.306,0,0,1,11.389,16.389Zm1.435.792.248-.559,3.158,1.4-.248.559Z" transform="translate(-7 -13)" fill="#f8993c"/>
    </g>
  </g>
</svg>
